<?xml version="1.0" encoding="UTF-8" standalone="no"?>
<!-- Created by Syntax-Trax http://kevinpt.github.io/syntax-trax -->
<svg xmlns="http://www.w3.org/2000/svg"
xmlns:xlink="http://www.w3.org/1999/xlink"
xml:space="preserve"
width="150" height="393" version="1.1">
<style type="text/css">
<![CDATA[
.title_font {fill:#000000; text-anchor:middle;
    font-family:Sans; font-size:22pt; font-weight:bold; font-style:normal;}
.bubble_font {fill:#000000; text-anchor:middle;
    font-family:Sans; font-size:14pt; font-weight:bold; font-style:normal;}
.box_font {fill:#000000; text-anchor:middle;
    font-family:Times; font-size:14pt; font-weight:normal; font-style:italic;}
.token_font {fill:#000000; text-anchor:middle;
    font-family:Sans; font-size:16pt; font-weight:bold; font-style:normal;}
.label {fill:#000;
  text-anchor:middle;
  font-size:16pt; font-weight:bold; font-family:Sans;}
.link {fill: #0D47A1;}
.link:hover {fill: #0D47A1; text-decoration:underline;}
.link:visited {fill: #4A148C;}
]]>
</style>
<defs>
  <marker id="arrow" markerWidth="5" markerHeight="4" refX="2.5" refY="2" orient="auto" markerUnits="strokeWidth">
    <path d="M0,0 L0.5,2 L0,4 L4.5,2 z" fill="#000000" />
  </marker>
</defs>
<rect width="100%" height="100%" fill="white"/><path d="M76.0,80.0 A14.0,14.0 0 0,1 76.0,52.0 H81.0 A14.0,14.0 0 0,1 81.0,80.0 z" stroke="none" fill="#000000" fill-opacity="0.4980392156862745"/>
<path d="M76.0,114.5 A14.0,14.0 0 0,1 76.0,86.5 H81.0 A14.0,14.0 0 0,1 81.0,114.5 z" stroke="none" fill="#000000" fill-opacity="0.4980392156862745"/>
<path d="M76.0,149.0 A14.0,14.0 0 0,1 76.0,121.0 H81.0 A14.0,14.0 0 0,1 81.0,149.0 z" stroke="none" fill="#000000" fill-opacity="0.4980392156862745"/>
<path d="M76.0,183.5 A14.0,14.0 0 0,1 76.0,155.5 H81.0 A14.0,14.0 0 0,1 81.0,183.5 z" stroke="none" fill="#000000" fill-opacity="0.4980392156862745"/>
<path d="M76.0,218.0 A14.0,14.0 0 0,1 76.0,190.0 H81.0 A14.0,14.0 0 0,1 81.0,218.0 z" stroke="none" fill="#000000" fill-opacity="0.4980392156862745"/>
<path d="M76.0,252.5 A14.0,14.0 0 0,1 76.0,224.5 H81.0 A14.0,14.0 0 0,1 81.0,252.5 z" stroke="none" fill="#000000" fill-opacity="0.4980392156862745"/>
<path d="M76.0,287.0 A14.0,14.0 0 0,1 76.0,259.0 H81.0 A14.0,14.0 0 0,1 81.0,287.0 z" stroke="none" fill="#000000" fill-opacity="0.4980392156862745"/>
<path d="M76.0,321.5 A14.0,14.0 0 0,1 76.0,293.5 H81.0 A14.0,14.0 0 0,1 81.0,321.5 z" stroke="none" fill="#000000" fill-opacity="0.4980392156862745"/>
<path d="M76.0,356.0 A14.0,14.0 0 0,1 76.0,328.0 H81.0 A14.0,14.0 0 0,1 81.0,356.0 z" stroke="none" fill="#000000" fill-opacity="0.4980392156862745"/>
<path d="M76.0,390.5 A14.0,14.0 0 0,1 76.0,362.5 H81.0 A14.0,14.0 0 0,1 81.0,390.5 z" stroke="none" fill="#000000" fill-opacity="0.4980392156862745"/>
<circle cx="10.0" cy="62.0" r="3.0" stroke="#000000" fill="#FFFFFF" stroke-width="2"/>
<path d="M73.0,77.0 A14.0,14.0 0 0,1 73.0,49.0 H78.0 A14.0,14.0 0 0,1 78.0,77.0 z" stroke="#000000" fill="#B3E5FC" stroke-width="2"/>
<text class="bubble_font" x="75.5" y="69.0">0</text>
<path d="M73.0,111.5 A14.0,14.0 0 0,1 73.0,83.5 H78.0 A14.0,14.0 0 0,1 78.0,111.5 z" stroke="#000000" fill="#B3E5FC" stroke-width="2"/>
<text class="bubble_font" x="75.5" y="103.5">1</text>
<path d="M73.0,146.0 A14.0,14.0 0 0,1 73.0,118.0 H78.0 A14.0,14.0 0 0,1 78.0,146.0 z" stroke="#000000" fill="#B3E5FC" stroke-width="2"/>
<text class="bubble_font" x="75.5" y="138.0">2</text>
<path d="M73.0,180.5 A14.0,14.0 0 0,1 73.0,152.5 H78.0 A14.0,14.0 0 0,1 78.0,180.5 z" stroke="#000000" fill="#B3E5FC" stroke-width="2"/>
<text class="bubble_font" x="75.5" y="172.5">3</text>
<path d="M73.0,215.0 A14.0,14.0 0 0,1 73.0,187.0 H78.0 A14.0,14.0 0 0,1 78.0,215.0 z" stroke="#000000" fill="#B3E5FC" stroke-width="2"/>
<text class="bubble_font" x="75.5" y="207.0">4</text>
<path d="M73.0,249.5 A14.0,14.0 0 0,1 73.0,221.5 H78.0 A14.0,14.0 0 0,1 78.0,249.5 z" stroke="#000000" fill="#B3E5FC" stroke-width="2"/>
<text class="bubble_font" x="75.5" y="241.5">5</text>
<path d="M73.0,284.0 A14.0,14.0 0 0,1 73.0,256.0 H78.0 A14.0,14.0 0 0,1 78.0,284.0 z" stroke="#000000" fill="#B3E5FC" stroke-width="2"/>
<text class="bubble_font" x="75.5" y="276.0">6</text>
<path d="M73.0,318.5 A14.0,14.0 0 0,1 73.0,290.5 H78.0 A14.0,14.0 0 0,1 78.0,318.5 z" stroke="#000000" fill="#B3E5FC" stroke-width="2"/>
<text class="bubble_font" x="75.5" y="310.5">7</text>
<path d="M73.0,353.0 A14.0,14.0 0 0,1 73.0,325.0 H78.0 A14.0,14.0 0 0,1 78.0,353.0 z" stroke="#000000" fill="#B3E5FC" stroke-width="2"/>
<text class="bubble_font" x="75.5" y="345.0">8</text>
<path d="M73.0,387.5 A14.0,14.0 0 0,1 73.0,359.5 H78.0 A14.0,14.0 0 0,1 78.0,387.5 z" stroke="#000000" fill="#B3E5FC" stroke-width="2"/>
<text class="bubble_font" x="75.5" y="379.5">9</text>
<line x1="30.0" y1="62.0" x2="54.0" y2="62.0" stroke="#000000" stroke-width="2" marker-end="url(#arrow)" />
<line x1="93.0" y1="62.0" x2="122.0" y2="62.0" stroke="#000000" stroke-width="2" />
<path d="M39.0,71.0 A9.0,9.0 0 0,0 30.0,62.0" stroke="#000000" fill="none" stroke-width="2"/>
<line x1="48.0" y1="96.5" x2="54.0" y2="96.5" stroke="#000000" stroke-width="2" marker-end="url(#arrow)" />
<line x1="93.0" y1="96.5" x2="99.0" y2="96.5" stroke="#000000" stroke-width="2" marker-end="url(#arrow)" />
<path d="M39.0,87.5 A9.0,9.0 0 0,0 48.0,96.5" stroke="#000000" fill="none" stroke-width="2"/>
<path d="M103.0,96.5 A9.0,9.0 0 0,0 112.0,87.5" stroke="#000000" fill="none" stroke-width="2"/>
<line x1="48.0" y1="131.0" x2="54.0" y2="131.0" stroke="#000000" stroke-width="2" marker-end="url(#arrow)" />
<line x1="93.0" y1="131.0" x2="99.0" y2="131.0" stroke="#000000" stroke-width="2" marker-end="url(#arrow)" />
<path d="M39.0,122.0 A9.0,9.0 0 0,0 48.0,131.0" stroke="#000000" fill="none" stroke-width="2"/>
<path d="M103.0,131.0 A9.0,9.0 0 0,0 112.0,122.0" stroke="#000000" fill="none" stroke-width="2"/>
<line x1="48.0" y1="165.5" x2="54.0" y2="165.5" stroke="#000000" stroke-width="2" marker-end="url(#arrow)" />
<line x1="93.0" y1="165.5" x2="99.0" y2="165.5" stroke="#000000" stroke-width="2" marker-end="url(#arrow)" />
<path d="M39.0,156.5 A9.0,9.0 0 0,0 48.0,165.5" stroke="#000000" fill="none" stroke-width="2"/>
<path d="M103.0,165.5 A9.0,9.0 0 0,0 112.0,156.5" stroke="#000000" fill="none" stroke-width="2"/>
<line x1="48.0" y1="200.0" x2="54.0" y2="200.0" stroke="#000000" stroke-width="2" marker-end="url(#arrow)" />
<line x1="93.0" y1="200.0" x2="99.0" y2="200.0" stroke="#000000" stroke-width="2" marker-end="url(#arrow)" />
<path d="M39.0,191.0 A9.0,9.0 0 0,0 48.0,200.0" stroke="#000000" fill="none" stroke-width="2"/>
<path d="M103.0,200.0 A9.0,9.0 0 0,0 112.0,191.0" stroke="#000000" fill="none" stroke-width="2"/>
<line x1="48.0" y1="234.5" x2="54.0" y2="234.5" stroke="#000000" stroke-width="2" marker-end="url(#arrow)" />
<line x1="93.0" y1="234.5" x2="99.0" y2="234.5" stroke="#000000" stroke-width="2" marker-end="url(#arrow)" />
<path d="M39.0,225.5 A9.0,9.0 0 0,0 48.0,234.5" stroke="#000000" fill="none" stroke-width="2"/>
<path d="M103.0,234.5 A9.0,9.0 0 0,0 112.0,225.5" stroke="#000000" fill="none" stroke-width="2"/>
<line x1="48.0" y1="269.0" x2="54.0" y2="269.0" stroke="#000000" stroke-width="2" marker-end="url(#arrow)" />
<line x1="93.0" y1="269.0" x2="99.0" y2="269.0" stroke="#000000" stroke-width="2" marker-end="url(#arrow)" />
<path d="M39.0,260.0 A9.0,9.0 0 0,0 48.0,269.0" stroke="#000000" fill="none" stroke-width="2"/>
<path d="M103.0,269.0 A9.0,9.0 0 0,0 112.0,260.0" stroke="#000000" fill="none" stroke-width="2"/>
<line x1="48.0" y1="303.5" x2="54.0" y2="303.5" stroke="#000000" stroke-width="2" marker-end="url(#arrow)" />
<line x1="93.0" y1="303.5" x2="99.0" y2="303.5" stroke="#000000" stroke-width="2" marker-end="url(#arrow)" />
<path d="M39.0,294.5 A9.0,9.0 0 0,0 48.0,303.5" stroke="#000000" fill="none" stroke-width="2"/>
<path d="M103.0,303.5 A9.0,9.0 0 0,0 112.0,294.5" stroke="#000000" fill="none" stroke-width="2"/>
<line x1="48.0" y1="338.0" x2="54.0" y2="338.0" stroke="#000000" stroke-width="2" marker-end="url(#arrow)" />
<line x1="93.0" y1="338.0" x2="99.0" y2="338.0" stroke="#000000" stroke-width="2" marker-end="url(#arrow)" />
<path d="M39.0,329.0 A9.0,9.0 0 0,0 48.0,338.0" stroke="#000000" fill="none" stroke-width="2"/>
<path d="M103.0,338.0 A9.0,9.0 0 0,0 112.0,329.0" stroke="#000000" fill="none" stroke-width="2"/>
<line x1="48.0" y1="372.5" x2="54.0" y2="372.5" stroke="#000000" stroke-width="2" marker-end="url(#arrow)" />
<line x1="93.0" y1="372.5" x2="99.0" y2="372.5" stroke="#000000" stroke-width="2" marker-end="url(#arrow)" />
<path d="M39.0,363.5 A9.0,9.0 0 0,0 48.0,372.5" stroke="#000000" fill="none" stroke-width="2"/>
<path d="M103.0,372.5 A9.0,9.0 0 0,0 112.0,363.5" stroke="#000000" fill="none" stroke-width="2"/>
<path d="M121.0,62.0 A9.0,9.0 0 0,0 112.0,71.0" stroke="#000000" fill="none" stroke-width="2"/>
<line x1="39.0" y1="363.5" x2="39.0" y2="71.0" stroke="#000000" stroke-width="2" />
<line x1="112.0" y1="363.5" x2="112.0" y2="71.0" stroke="#000000" stroke-width="2" />
<line x1="12.0" y1="62.0" x2="26.0" y2="62.0" stroke="#000000" stroke-width="2" marker-end="url(#arrow)" />
<circle cx="141.0" cy="62.0" r="3.0" stroke="#000000" fill="#FFFFFF" stroke-width="2"/>
<line x1="120.0" y1="62.0" x2="134.0" y2="62.0" stroke="#000000" stroke-width="2" marker-end="url(#arrow)" />
<text class="title_font" x="49.0" y="31.0">Node</text>
</svg>